<svg preserveAspectRatio="none" overflow="visible" style="display: block;" width="14" height="14" viewBox="0 0 14 14" fill="none" xmlns="http://www.w3.org/2000/svg">
<g id="flag">
<path id="Vector" d="M2.3338 12.8338V2.33296C2.3338 2.24239 2.35488 2.15307 2.39538 2.07206C2.43587 1.99106 2.49467 1.9206 2.56711 1.86626C3.17289 1.41184 3.90968 1.1662 4.6669 1.1662C6.41672 1.1662 7.58327 2.33296 8.94406 2.33296C9.72176 2.33296 10.3181 2.17739 10.733 1.86626C10.8196 1.80125 10.9227 1.76167 11.0305 1.75194C11.1384 1.74221 11.2469 1.76272 11.3438 1.81117C11.4407 1.85962 11.5221 1.9341 11.5791 2.02626C11.636 2.11842 11.6662 2.22462 11.6662 2.33296V8.16676C11.6662 8.25733 11.6451 8.34665 11.6046 8.42766C11.5641 8.50866 11.5053 8.57912 11.4329 8.63346C10.8271 9.08788 10.0903 9.33352 9.3331 9.33352C7.58327 9.33352 6.41672 8.16676 4.6669 8.16676C3.80605 8.16678 2.97542 8.48414 2.3338 9.05817" stroke="#E8A33D" stroke-width="2" stroke-linecap="round"/>
</g>
</svg>
